<svg version="1.1" xmlns="http://www.w3.org/2000/svg" viewBox="-215.0399963378906 -1036.2880126953125 5660.67197265625 1355.7760375976563"><desc>Created with Snap</desc><defs></defs><g><rect x="-215.0399963378906" y="-1036.2880126953125" width="5660.67197265625" height="1355.7760375976563" fill="#247ba0" style=""></rect><g><g transform="matrix(1.024,0,0,-1.024,0,0)"><path d="M173 0L90 0L90 656L277 656Q332 656 377 646Q423 636 455 613Q487 591 505 554Q523 517 523 463Q523 411 505 373Q488 335 456 310Q424 285 379 272Q335 260 281 260L173 260L173 0ZM173 589L173 328L271 328Q357 328 398 360Q440 393 440 463Q440 534 396 561Q353 589 267 589L173 589ZM730 0L648 0L648 486L716 486L723 398L726 398Q751 444 786 471Q822 498 864 498Q893 498 916 488L900 416Q888 420 878 422Q868 424 853 424Q822 424 788 399Q755 374 730 312L730 0ZM1107 -12Q1046 -12 1005 24Q965 60 965 126Q965 206 1036 248Q1107 291 1263 308Q1263 331 1258 353Q1254 375 1243 392Q1232 409 1212 419Q1193 430 1163 430Q1121 430 1084 414Q1047 398 1018 378L986 435Q1020 457 1069 477Q1118 498 1177 498Q1266 498 1306 443Q1346 389 1346 298L1346 0L1278 0L1271 58L1268 58Q1233 29 1193 8Q1153 -12 1107 -12ZM1131 54Q1166 54 1197 70Q1228 87 1263 119L1263 254Q1202 246 1160 235Q1119 224 1093 209Q1068 194 1056 174Q1045 155 1045 132Q1045 90 1070 72Q1095 54 1131 54ZM1652 -12Q1613 -12 1586 0Q1560 12 1543 33Q1527 54 1520 84Q1513 114 1513 150L1513 419L1441 419L1441 481L1517 486L1527 622L1596 622L1596 486L1727 486L1727 419L1596 419L1596 149Q1596 104 1612 79Q1629 55 1671 55Q1684 55 1699 59Q1714 63 1726 68L1742 6Q1722 -1 1698 -7Q1675 -12 1652 -12ZM1919 0L1837 0L1837 712L1919 712L1919 518L1916 418Q1951 451 1989 474Q2027 498 2078 498Q2155 498 2190 450Q2226 402 2226 308L2226 0L2144 0L2144 297Q2144 366 2122 396Q2100 427 2052 427Q2014 427 1985 408Q1956 389 1919 352L1919 0ZM2493 -12Q2432 -12 2391 24Q2351 60 2351 126Q2351 206 2422 248Q2493 291 2649 308Q2649 331 2644 353Q2640 375 2629 392Q2618 409 2598 419Q2579 430 2549 430Q2507 430 2470 414Q2433 398 2404 378L2372 435Q2406 457 2455 477Q2504 498 2563 498Q2652 498 2692 443Q2732 389 2732 298L2732 0L2664 0L2657 58L2654 58Q2619 29 2579 8Q2539 -12 2493 -12ZM2517 54Q2552 54 2583 70Q2614 87 2649 119L2649 254Q2588 246 2546 235Q2505 224 2479 209Q2454 194 2442 174Q2431 155 2431 132Q2431 90 2456 72Q2481 54 2517 54ZM2967 0L2885 0L2885 486L2953 486L2960 416L2963 416Q2995 451 3032 474Q3070 498 3114 498Q3170 498 3201 473Q3233 449 3248 405Q3286 447 3324 472Q3363 498 3408 498Q3483 498 3519 450Q3556 402 3556 308L3556 0L3474 0L3474 297Q3474 366 3452 396Q3430 427 3384 427Q3329 427 3262 352L3262 0L3180 0L3180 297Q3180 366 3158 396Q3136 427 3089 427Q3034 427 2967 352L2967 0ZM3911 -12Q3862 -12 3819 5Q3777 23 3745 55Q3714 88 3696 135Q3678 182 3678 242Q3678 302 3696 349Q3715 397 3745 430Q3776 463 3815 480Q3854 498 3896 498Q3942 498 3978 482Q4015 466 4039 436Q4064 406 4077 364Q4090 322 4090 270Q4090 257 4089 244Q4089 232 4087 223L3759 223Q3764 145 3807 99Q3851 54 3921 54Q3956 54 3985 64Q4015 75 4042 92L4071 38Q4039 18 4000 3Q3961 -12 3911 -12ZM3758 282L4018 282Q4018 356 3986 394Q3955 433 3898 433Q3872 433 3848 423Q3825 413 3806 393Q3787 374 3774 346Q3762 318 3758 282ZM4337 -12Q4285 -12 4238 7Q4191 26 4156 55L4197 110Q4229 84 4262 68Q4296 52 4340 52Q4388 52 4412 74Q4436 96 4436 128Q4436 147 4426 161Q4416 175 4400 185Q4385 196 4365 204Q4345 212 4325 220Q4299 229 4273 240Q4247 252 4226 268Q4206 285 4193 307Q4180 329 4180 360Q4180 389 4191 414Q4203 440 4224 458Q4246 477 4277 487Q4308 498 4347 498Q4393 498 4431 482Q4470 466 4498 443L4459 391Q4434 410 4407 422Q4380 434 4348 434Q4302 434 4280 413Q4259 392 4259 364Q4259 347 4268 334Q4277 322 4292 312Q4307 303 4326 295Q4346 288 4367 280Q4393 270 4419 259Q4446 248 4467 231Q4488 215 4501 191Q4515 167 4515 133Q4515 103 4503 77Q4492 51 4469 31Q4447 11 4413 -1Q4380 -12 4337 -12ZM4711 0L4629 0L4629 712L4711 712L4711 518L4708 418Q4743 451 4781 474Q4819 498 4870 498Q4947 498 4982 450Q5018 402 5018 308L5018 0L4936 0L4936 297Q4936 366 4914 396Q4892 427 4844 427Q4806 427 4777 408Q4748 389 4711 352L4711 0Z" fill="#ffffff" style=""></path></g></g></g></svg>