<svg version="1.1" xmlns="http://www.w3.org/2000/svg" viewBox="-231.4239990234375 -1034.2400390625 2472.96005859375 1341.4400390625"><desc>Created with Snap</desc><defs></defs><g><rect x="-231.4239990234375" y="-1034.2400390625" width="2472.96005859375" height="1341.4400390625" fill="#247ba0" style=""></rect><g><g transform="matrix(1.024,0,0,-1.024,0,0)"><path d="M212 0L74 0L74 710L375 710Q424 710 465 689Q507 669 537 635Q567 602 584 559Q601 517 601 474Q601 429 585 386Q569 344 540 311Q511 278 470 258Q429 238 380 238L212 238L212 0ZM212 589L212 359L372 359Q410 359 435 390Q461 421 461 474Q461 501 453 522Q445 544 432 559Q419 574 401 581Q384 589 366 589L212 589ZM835 0L697 0L697 710L1011 710Q1060 710 1101 689Q1143 669 1173 635Q1203 602 1220 559Q1237 517 1237 474Q1237 405 1202 348Q1168 292 1109 267L1271 0L1116 0L971 238L835 238L835 0ZM835 589L835 359L1008 359Q1027 359 1043 368Q1060 377 1072 392Q1084 408 1091 429Q1098 450 1098 474Q1098 499 1090 520Q1082 541 1068 556Q1055 572 1037 580Q1020 589 1002 589L835 589ZM1500 0L1362 0L1362 710L1663 710Q1712 710 1753 689Q1795 669 1825 635Q1855 602 1872 559Q1889 517 1889 474Q1889 429 1873 386Q1857 344 1828 311Q1799 278 1758 258Q1717 238 1668 238L1500 238L1500 0ZM1500 589L1500 359L1660 359Q1698 359 1723 390Q1749 421 1749 474Q1749 501 1741 522Q1733 544 1720 559Q1707 574 1689 581Q1672 589 1654 589L1500 589Z" fill="#ffffff" style=""></path></g></g></g></svg>