<svg version="1.1" xmlns="http://www.w3.org/2000/svg" viewBox="-1945.9793394640885 -5196.582681138415 9539.989849074223 9540.01299989307"><desc>Created with Snap</desc><defs></defs><g><g transform="matrix(23.7064,0,0,23.7064,-1917.2722,-5190.6872)">
<g id="gSl6m2ucdpcfn">
	<path fill="#6daedb" d="M369.78955,219.42564l18.46289-18.46289l-18.46289-18.46289V31.17271H218.4624l-18.46289-18.46289
		l-18.46277,18.46289H30.20947v151.32812l-18.46191,18.46191l18.46191,18.46191v151.32811h151.32727l18.46277,18.46289
		l18.46289-18.46289h151.32715V219.42564z M375.52393,200.96275l-5.73438,5.73438v-11.46875L375.52393,200.96275z
		 M232.42529,344.06137h-64.85138L56.90088,233.3878v-64.8501L167.57391,57.86412h64.85138l110.67285,110.67285v64.85156
		L232.42529,344.06137z M343.09814,246.11705v97.94432h-97.94434L343.09814,246.11705z M223.42529,353.06137l-8.69141,8.69141
		H185.2652l-8.69135-8.69141H223.42529z M56.90088,246.11632l97.94458,97.94505H56.90088V246.11632z M47.90088,224.38756
		l-8.69141-8.69141v-29.4668l8.69141-8.69141V224.38756z M56.90088,155.80919V57.86412h97.94458L56.90088,155.80919z
		 M176.57385,48.86412l8.69135-8.69141h29.46869l8.69141,8.69141H176.57385z M343.09814,155.80846l-97.94434-97.94434h97.94434
		V155.80846z M352.09814,177.53697l8.69141,8.69141v29.46875l-8.69141,8.69141V177.53697z M360.78955,40.17271v133.32715
		l-8.69141-8.69141V48.86412H236.15381l-8.69141-8.69141H360.78955z M199.99951,25.43834l5.73438,5.73438H194.2652
		L199.99951,25.43834z M39.20947,40.17271h133.32727l-8.69135,8.69141H47.90088v115.94507l-8.69141,8.69165V40.17271z
		 M24.47607,200.96275l5.7334-5.7334v11.4668L24.47607,200.96275z M39.20947,361.75278V228.42467l8.69141,8.69165v115.94505
		H163.8454l8.69135,8.69141H39.20947z M199.99951,376.48715l-5.73431-5.73438h11.46869L199.99951,376.48715z M227.4624,361.75278
		l8.69141-8.69141h115.94434V237.11705l8.69141-8.69141v133.32713H227.4624z" style=""></path>
</g>


<desc>Created with Snap</desc><defs></defs></g><g><g transform="matrix(1.024,0,0,-1.024,0,0)"><path d="M281 689Q409 689 479 635Q549 582 549 476Q549 363 476 308Q403 253 282 253L195 253L195 0L100 0L100 689L281 689ZM278 328Q361 328 404 360Q448 392 448 475Q448 549 404 582Q361 615 280 615L195 615L195 328L278 328ZM905 539Q933 539 957 533L940 443Q916 449 894 449Q845 449 815 413Q785 377 768 301L768 0L676 0L676 527L755 527L764 420Q785 479 821 509Q857 539 905 539ZM1417 123Q1417 91 1428 75Q1439 60 1461 52L1440 -12Q1399 -7 1374 11Q1349 29 1337 67Q1284 -12 1180 -12Q1102 -12 1057 32Q1012 76 1012 147Q1012 231 1072 276Q1133 321 1244 321L1325 321L1325 360Q1325 416 1298 440Q1271 464 1215 464Q1157 464 1073 436L1050 503Q1148 539 1232 539Q1325 539 1371 493Q1417 448 1417 364L1417 123ZM1201 57Q1280 57 1325 139L1325 260L1256 260Q1110 260 1110 152Q1110 105 1133 81Q1156 57 1201 57ZM1837 85L1872 24Q1820 -12 1754 -12Q1687 -12 1649 26Q1612 65 1612 138L1612 456L1520 456L1520 527L1612 527L1612 646L1704 657L1704 527L1829 527L1819 456L1704 456L1704 142Q1704 101 1718 82Q1733 64 1767 64Q1798 64 1837 85ZM2215 539Q2287 539 2327 496Q2368 453 2368 378L2368 0L2276 0L2276 365Q2276 421 2254 444Q2233 467 2192 467Q2151 467 2119 443Q2087 419 2059 375L2059 0L1967 0L1967 738L2059 748L2059 454Q2121 539 2215 539ZM2908 123Q2908 91 2919 75Q2930 60 2952 52L2931 -12Q2890 -7 2865 11Q2840 29 2828 67Q2775 -12 2671 -12Q2593 -12 2548 32Q2503 76 2503 147Q2503 231 2563 276Q2624 321 2735 321L2816 321L2816 360Q2816 416 2789 440Q2762 464 2706 464Q2648 464 2564 436L2541 503Q2639 539 2723 539Q2816 539 2862 493Q2908 448 2908 364L2908 123ZM2692 57Q2771 57 2816 139L2816 260L2747 260Q2601 260 2601 152Q2601 105 2624 81Q2647 57 2692 57ZM3626 539Q3691 539 3730 495Q3769 452 3769 378L3769 0L3677 0L3677 365Q3677 467 3603 467Q3564 467 3537 444Q3510 422 3479 374L3479 0L3387 0L3387 365Q3387 467 3313 467Q3273 467 3246 444Q3219 421 3189 374L3189 0L3097 0L3097 527L3176 527L3184 450Q3243 539 3336 539Q3385 539 3419 514Q3454 489 3469 444Q3500 490 3537 514Q3575 539 3626 539ZM4352 279Q4352 256 4350 232L4014 232Q4020 145 4058 104Q4096 63 4156 63Q4194 63 4226 74Q4258 85 4293 109L4333 54Q4249 -12 4149 -12Q4039 -12 3977 60Q3916 132 3916 258Q3916 340 3942 403Q3969 467 4018 503Q4068 539 4135 539Q4240 539 4296 470Q4352 401 4352 279ZM4261 300L4261 306Q4261 384 4230 425Q4199 466 4137 466Q4024 466 4014 300L4261 300ZM4642 539Q4696 539 4739 524Q4782 509 4821 479L4782 421Q4746 444 4713 455Q4681 466 4645 466Q4600 466 4574 447Q4548 429 4548 397Q4548 365 4572 347Q4597 329 4661 312Q4749 290 4792 252Q4836 214 4836 148Q4836 70 4775 29Q4715 -12 4628 -12Q4508 -12 4429 57L4478 113Q4545 62 4626 62Q4678 62 4708 83Q4739 105 4739 142Q4739 169 4728 185Q4717 202 4690 214Q4663 227 4611 241Q4527 263 4489 300Q4452 337 4452 394Q4452 435 4476 468Q4501 502 4544 520Q4588 539 4642 539ZM5214 539Q5286 539 5326 496Q5367 453 5367 378L5367 0L5275 0L5275 365Q5275 421 5253 444Q5232 467 5191 467Q5150 467 5118 443Q5086 419 5058 375L5058 0L4966 0L4966 738L5058 748L5058 454Q5120 539 5214 539Z" fill="#6daedb" style=""></path></g></g></g></svg>